<svg
width="24"
height="24"
viewBox="0 0 24 24"
fill="none"
xmlns="http://www.w3.org/2000/svg"
>
<path
    fill-rule="evenodd"
    clip-rule="evenodd"
    d="M10.05 13H6.99985L4.70711 15.3361L4 14.629L5.62898 13H3V12H5.62898L3.94286 10.3392L4.64997 9.63205L6.99985 12H10.05C10.1197 11.6566 10.2598 11.3388 10.4546 11.0622L8.55385 9.02016H5.25013V8.02016H7.55385L5.69488 6.16119L6.40199 5.45409L8.02331 7.07541V5.24698L9.00035 5.19174V8.02016L11.1771 10.3783C11.4255 10.2231 11.7032 10.1103 12 10.05V6.70711L9.87102 4.57812L10.5781 3.87102L12 5.29289V3H13V5.37102L14.5 3.87102L15.2071 4.57812L13 6.78523V10.05C13.3171 10.1144 13.6124 10.2387 13.8735 10.4108L16.013 8.25782V5.24698H17.013V7.25782L18.6343 5.6365L19.3414 6.3436L17.6648 8.02016H19.7861V9.02016H16.6648L14.5823 11.116C14.7579 11.3797 14.8848 11.6787 14.95 12H18.2929L20.629 9.68735L21.3361 10.3945L19.7071 12H22V13H19.7071L21.3361 14.629L20.629 15.3361L18.2929 13H14.95C14.8901 13.2951 14.7782 13.5713 14.6244 13.8186L16.9577 15.9896H19.7861V16.9896H17.9577L19.3414 18.3733L18.6343 19.0804L17.013 17.4591V19.7628H16.013V16.4591L13.9423 14.5422C13.6647 14.7387 13.3453 14.8799 13 14.95V18.2929L15.2071 20.5L14.5 21.2071L13 19.7071V22H12V19.7852L10.5781 21.2071L9.87102 20.5L12 18.371V14.95C11.6765 14.8843 11.3758 14.7562 11.1108 14.5788L9.02184 16.6415V19.7628H8.02184V17.6415L6.40052 19.2628L5.69341 18.5557L7.25949 16.9896H5.24865V15.9896H8.25949L10.4074 13.8683C10.2371 13.6085 10.114 13.315 10.05 13ZM12.5 14C13.3284 14 14 13.3284 14 12.5C14 11.6716 13.3284 11 12.5 11C11.6716 11 11 11.6716 11 12.5C11 13.3284 11.6716 14 12.5 14Z"
    fill="currentColor"
></path>
</svg>