  <svg
                                width="24"
                                height="24"
                                viewBox="0 0 24 24"
                                fill="none"
                                xmlns="http://www.w3.org/2000/svg"
                              >
                                <path
                                  fill-rule="evenodd"
                                  clip-rule="evenodd"
                                  d="M9.0131 12.0346H15.0044V10.0379H9.0131V12.0346ZM9.0131 13.0093V17.0305C9.21361 16.9366 9.39959 16.736 9.69214 16.352C10.321 15.5267 10.7239 15.2094 11.5349 15.2094C12.3459 15.2094 12.7489 15.5267 13.3777 16.352C13.8299 16.9455 14.0275 17.1011 14.4176 17.1011C14.6501 17.1011 14.8142 17.0459 15.0044 16.8757V13.0093H9.0131ZM9.0131 9.06317H15.0044V7.00257H9.0131V9.06317ZM8.00425 16.8181V5.92419H8.03176C8.22006 4.49444 9.37135 3.51569 11.3727 3.01573C11.6423 2.94839 11.9178 3.10348 11.988 3.36215C12.0582 3.62081 11.8965 3.8851 11.6269 3.95245C10.0644 4.34276 9.23971 5.09554 9.05392 6.02784H15.032C15.2203 4.59809 16.3715 3.51569 18.3729 3.01573C18.6425 2.94839 18.918 3.10348 18.9882 3.36215C19.0584 3.62081 18.8967 3.8851 18.6271 3.95245C16.8349 4.40016 16.0133 5.18842 16.0133 6.35395V15.7089C16.3865 15.356 16.7492 15.2094 17.3004 15.2094C18.1113 15.2094 18.5143 15.5267 19.1432 16.352C19.5953 16.9455 19.7929 17.1011 20.1831 17.1011C20.5733 17.1011 20.7709 16.9455 21.223 16.352C21.455 16.0476 21.6363 16.0724 21.8623 16.2424C22.0884 16.4124 21.9331 16.9332 21.8623 17.0305C21.7915 17.1278 20.9941 18.0758 20.1831 18.0758C19.3721 18.0758 18.9692 17.7585 18.3403 16.9332C17.8881 16.3397 17.6905 16.1841 17.3004 16.1841C16.9102 16.1841 16.7126 16.3397 16.2604 16.9332C16.171 17.0505 16.0862 17.1576 16.004 17.255L15.6493 17.6272C15.2951 17.9434 14.9415 18.0758 14.4176 18.0758C13.6067 18.0758 13.2037 17.7585 12.5749 16.9332C12.1227 16.3397 11.9251 16.1841 11.5349 16.1841C11.1448 16.1841 10.9472 16.3397 10.495 16.9332C9.86614 17.7585 9.46316 18.0758 8.65219 18.0758C7.84122 18.0758 7.43825 17.7585 6.80941 16.9332C6.35723 16.3397 6.15963 16.1841 5.76947 16.1841C5.3793 16.1841 5.18171 16.3397 4.72953 16.9332C4.10069 17.7585 3.31568 18.064 2.50471 18.064C2.22856 18.064 2.00469 17.8458 2.00469 17.5766C2.00469 17.3075 2.22856 17.0893 2.50471 17.0893C2.89487 17.0893 3.4745 16.9455 3.92669 16.352C4.55553 15.5267 4.9585 15.2094 5.76947 15.2094C6.58044 15.2094 6.98341 15.5267 7.61225 16.352C7.76667 16.5547 7.8914 16.7063 8.00425 16.8181ZM21.8278 19.9241C21.7123 20.2502 20.9941 21 20.1831 21C19.3721 21 18.9692 20.6827 18.3403 19.8574C17.8881 19.2639 17.6905 19.1083 17.3004 19.1083C16.9102 19.1083 16.7126 19.2639 16.2604 19.8574C15.6316 20.6827 15.2286 21 14.4176 21C13.6067 21 13.2037 20.6827 12.5749 19.8574C12.1227 19.2639 11.9251 19.1083 11.5349 19.1083C11.1448 19.1083 10.9472 19.2639 10.495 19.8574C9.86614 20.6827 9.46317 21 8.65219 21C7.84122 21 7.43825 20.6827 6.80941 19.8574C6.35723 19.2639 6.15963 19.1083 5.76947 19.1083C5.3793 19.1083 5.18171 19.2639 4.72953 19.8574C4.10069 20.6827 3.31098 21 2.50001 21C2.22386 21 2 20.7818 2 20.5126C2 20.2435 2.22386 20.0253 2.50001 20.0253C2.89018 20.0253 3.4745 19.8697 3.92669 19.2762C4.55553 18.4509 4.9585 18.1336 5.76947 18.1336C6.58044 18.1336 6.98341 18.4509 7.61225 19.2762C8.06444 19.8697 8.26203 20.0253 8.65219 20.0253C9.04236 20.0253 9.23995 19.8697 9.69214 19.2762C10.321 18.4509 10.7239 18.1336 11.5349 18.1336C12.3459 18.1336 12.7489 18.4509 13.3777 19.2762C13.8299 19.8697 14.0275 20.0253 14.4176 20.0253C14.8078 20.0253 15.0054 19.8697 15.4576 19.2762C16.0864 18.4509 16.4894 18.1336 17.3004 18.1336C18.1113 18.1336 18.5143 18.4509 19.1432 19.2762C19.5953 19.8697 19.7929 20.0253 20.1831 20.0253C20.5733 20.0253 20.7709 19.8697 21.223 19.2762C21.4568 18.9694 21.5935 18.9495 21.8623 19.0822C22.1312 19.215 21.9432 19.5981 21.8278 19.9241Z"
                                  fill="currentColor"
                                ></path>
                              </svg>