  <svg
                                width="24"
                                height="24"
                                viewBox="0 0 24 24"
                                fill="none"
                                xmlns="http://www.w3.org/2000/svg"
                              >
                                <path
                                  fill-rule="evenodd"
                                  clip-rule="evenodd"
                                  d="M11.1439 8H14H15C15.79 8 17.0659 8.4478 18.951 9.35562C18.653 7.33854 17.0284 5.73141 14.9515 5.50043C14.9345 5.49854 14.9175 5.49674 14.9005 5.49504L14.8757 5.49256C14.7591 5.4809 14.1093 5.49342 13.9095 5.52861C13.5515 5.59164 13.2122 5.70869 12.9002 5.87103C12.6011 6.02663 12.3272 6.22384 12.0861 6.45498C11.6491 6.8738 11.3199 7.40402 11.1439 8ZM14 9V11.5C14 12.3179 13.6072 13.0441 13 13.5002V22H12V14.0095H11.017V22H10.017V13.5129C9.40013 13.0576 9 12.3255 9 11.5V9C7.65634 9 5.65634 10 3 12V9.5C3 6.56452 5.2997 4.16617 8.19576 4.00827C8.6735 2.83876 9.97247 2 11.5 2C13.2323 2 14.6706 3.07867 14.9507 4.49513C14.9588 4.49591 14.967 4.4967 14.9752 4.49752L15 4.5C17.8384 4.78384 20 7.17234 20 10.0249V11C17.4249 9.66667 15.7582 9 15 9H14ZM13 9H10V11.5C10 12.3284 10.6716 13 11.5 13C12.3284 13 13 12.3284 13 11.5V11H11V10H13V9ZM10.1109 8C10.3056 7.13658 10.7473 6.36668 11.3577 5.76835C10.6965 5.28519 9.88158 5 9 5H8.5C6.01472 5 4 7.01472 4 9.5V10.0609C6.05299 8.69292 7.69739 8 9 8H10.1109ZM13.9239 4.51463C13.6536 3.665 12.6923 3 11.5 3C10.5567 3 9.75798 3.41623 9.33168 4.01083C10.4064 4.08121 11.3885 4.49116 12.1716 5.13443C12.6952 4.81499 13.2887 4.59893 13.9239 4.51463ZM18 19H19V22H18V19ZM20 20H21V22H20V20ZM16 20H17V22H16V20ZM14 21H15V22H14V21ZM8 21H9V22H8V21ZM6 20H7V22H6V20Z"
                                  fill="currentColor"
                                ></path>
                              </svg>