<svg
                                width="24"
                                height="24"
                                viewBox="0 0 24 24"
                                fill="none"
                                xmlns="http://www.w3.org/2000/svg"
                              >
                                <path
                                  fill-rule="evenodd"
                                  clip-rule="evenodd"
                                  d="M11.968 7C13.6241 7 15.7934 7.75641 18.5 9.25836V7.95819V6.54626C15.9572 4.93199 13.4089 4 12 4C10.5686 4 7.95627 4.94913 5.5 6.53951V9.22297C8.17686 7.74452 10.325 7 11.968 7ZM11.968 8C10.4379 8 8.27669 8.78352 5.51229 10.3632C5.6913 13.0036 7.82785 16.1364 12.0005 19.6959C16.1546 16.1579 18.2902 13.0374 18.4853 10.3984C15.6914 8.79517 13.5095 8 11.968 8ZM4.5 6.00401C7.54211 3.92176 10.5156 3 12 3C13.4844 3 16.3616 3.9106 19.5 6.00401V10.0037C19.5 13.2253 17 16.8907 12 21C7 16.8834 4.5 13.218 4.5 10.0037C4.5 9.06141 4.5 7.01638 4.5 6.00401ZM9.15773 12.9662C8.89569 13.0533 8.61264 12.9115 8.52553 12.6495C8.43842 12.3874 8.58023 12.1044 8.84227 12.0173C9.89516 11.6672 10.951 11 12.0081 11C13.0651 11 14.121 11.6672 15.1739 12.0173C15.4359 12.1044 15.5777 12.3874 15.4906 12.6495C15.4035 12.9115 15.1204 13.0533 14.8584 12.9662C13.9059 12.6496 12.9564 12 12.0081 12C11.0597 12 10.1102 12.6496 9.15773 12.9662Z"
                                  fill="currentColor"
                                ></path>
                              </svg>