 <svg
                                width="24"
                                height="24"
                                viewBox="0 0 24 24"
                                fill="none"
                                xmlns="http://www.w3.org/2000/svg"
                              >
                                <path
                                  fill-rule="evenodd"
                                  clip-rule="evenodd"
                                  d="M10.4819 12.6587C10.4819 12.9712 10.2978 13.0664 10 13.1612L4.19658 15.0092C3.78171 15.1413 3.5 15.5267 3.5 15.9621V16.5C3.5 17.0523 3.94772 17.5 4.5 17.5H19.5C20.0523 17.5 20.5 17.0523 20.5 16.5V15.9621C20.5 15.5267 20.2183 15.1413 19.8034 15.0092C14.7678 13.381 12.1667 12.5436 12 12.4969C11.6968 12.3678 11.5 12.0701 11.5 11.7405V10.5C11.5 10.2239 11.7239 10 12 10C12.9665 10 13.75 9.2165 13.75 8.25C13.75 7.2835 12.9665 6.5 12 6.5C11.4467 6.5 10.937 6.75792 10.6075 7.18982C10.4401 7.40937 10.1263 7.45158 9.90675 7.28409C9.6872 7.1166 9.64499 6.80285 9.81248 6.58329C10.3292 5.90601 11.1314 5.5 12 5.5C13.5188 5.5 14.75 6.73122 14.75 8.25C14.75 9.59803 13.7801 10.7195 12.5 10.9547V11.4514C12.5 11.5602 12.5704 11.6566 12.6741 11.6896L20.1068 14.0564C20.9366 14.3206 21.5 15.0913 21.5 15.9621V16.5C21.5 17.6046 20.6046 18.5 19.5 18.5H4.5C3.39543 18.5 2.5 17.6046 2.5 16.5V15.9621C2.5 15.0913 3.06343 14.3206 3.89316 14.0564L10 12.1118C10.2019 12.0475 10.4176 12.159 10.4819 12.3609C10.4939 12.3985 10.4819 12.6192 10.4819 12.6587Z"
                                  fill="currentColor"
                                ></path>
                              </svg>